<svg data-v-0dd9719b="" version="1.0" xmlns="http://www.w3.org/2000/svg" xmlns:xlink="http://www.w3.org/1999/xlink" width="100%" height="100%" viewBox="0 0 340.000000 250.000000" preserveAspectRatio="xMidYMid meet" color-interpolation-filters="sRGB" style="margin: auto;"> <rect data-v-0dd9719b="" x="0" y="0" width="100%" height="100%" fill="#fff" fill-opacity="0" class="background"></rect> <!----> <g data-v-0dd9719b="" fill="#333" class="icon-text-wrapper icon-svg-group iconsvg" transform="translate(53.652503967285156,99.01922607421875)"><g class="iconsvg-imagesvg" transform="translate(0,0)"><g><rect fill="#333" fill-opacity="0" stroke-width="2" x="0" y="0" width="60" height="51.96154845414393" class="image-rect"></rect> <svg x="0" y="0" width="60" height="51.96154845414393" filtersec="colorsb676374089" class="image-svg-svg primary" style="overflow: visible;"><svg xmlns="http://www.w3.org/2000/svg" viewBox="0 0 115.4699935913086 100"><g fill-rule="evenodd"><path d="M88.47 31.82a5.89 5.89 0 0 0 .45-2.27 6 6 0 1 0-6.37 5.94L98.83 63.7l-21 36.3h8.77l20.62-35.71zM28 43.46a6 6 0 0 0 5.31-8.66L49.05 7.56H91L86.6 0H45.37L27.12 31.61A6 6 0 0 0 28 43.46zM62.76 76.19a6 6 0 0 0-4.88 2.55H25.32l-21-36.3L0 50l20.62 35.71H58a6 6 0 1 0 4.77-9.52z" fill="#00a2e9"></path><path d="M94.85 14.29h-37a6 6 0 1 0 0 7h32.3l21 36.3 4.32-7.59zM87.18 56.23a6 6 0 0 0-5.08 9.06L66.42 92.44H24.5l4.37 7.56H70.1l18.49-32a6 6 0 0 0-1.41-11.75zM25.66 69.75a6 6 0 1 0 6.89-5.88L16.64 36.3 37.6 0h-8.73L8.25 35.71 26.32 67a6 6 0 0 0-.66 2.75z" fill="#096594"></path></g></svg></svg> <!----></g></g> <g transform="translate(67,14.305773735046387)"><g data-gra="path-name" fill-rule="" class="tp-name iconsvg-namesvg"><g transform="scale(1)"><g><path d="M9.36-4.7L15.26-4.7Q16.22-4.7 16.89-5.36 17.56-6.03 17.56-7L17.56-7Q17.56-7.96 16.89-8.63 16.22-9.29 15.26-9.29L15.26-9.29 9.36-9.29Q7.9-9.29 6.61-9.84 5.33-10.39 4.38-11.34 3.43-12.29 2.88-13.58 2.33-14.86 2.33-16.32L2.33-16.32Q2.33-17.76 2.88-19.04 3.43-20.32 4.38-21.27 5.33-22.22 6.61-22.77 7.9-23.32 9.36-23.32L9.36-23.32 15.26-23.32Q16.72-23.32 17.99-22.77 19.26-22.22 20.21-21.27 21.15-20.32 21.72-19.04 22.29-17.76 22.29-16.32L22.29-16.32Q22.29-16.29 22.25-16.29L22.25-16.29 17.59-16.29Q17.56-16.29 17.56-16.32L17.56-16.32Q17.56-17.26 16.89-17.94 16.22-18.62 15.26-18.62L15.26-18.62 9.36-18.62Q8.4-18.62 7.71-17.94 7.03-17.26 7.03-16.32L7.03-16.32Q7.03-15.36 7.71-14.68 8.4-13.99 9.36-13.99L9.36-13.99 15.26-13.99Q16.72-13.99 17.99-13.44 19.26-12.89 20.21-11.94 21.15-10.99 21.72-9.71 22.29-8.43 22.29-7L22.29-7Q22.29-5.53 21.72-4.26 21.15-3 20.21-2.03 19.26-1.07 17.99-0.52 16.72 0.03 15.26 0.03L15.26 0.03 9.36 0.03Q7.9 0.03 6.61-0.52 5.33-1.07 4.38-2.03 3.43-3 2.88-4.26 2.33-5.53 2.33-7L2.33-7Q2.33-7 2.37-7L2.37-7 7.03-7Q7.03-7 7.03-7L7.03-7Q7.03-6.03 7.71-5.36 8.4-4.7 9.36-4.7L9.36-4.7ZM32.45 0.03L26.99 0.03Q26.95 0.03 26.95 0L26.95 0 26.95-23.29Q26.95-23.32 26.99-23.32L26.99-23.32 31.65-23.32Q31.65-23.32 31.65-23.29L31.65-23.29 31.65-7.63 34.15-11.66 36.91-16.09 36.91-16.09 41.38-23.32 41.38-23.32 46.87-23.32 46.87-23.32 46.87-23.29 39.68-11.66 46.87 0 46.87 0 46.87 0.03 41.38 0.03 41.38 0 36.91-7.16 32.48 0 32.45 0.03ZM71.49-23.32L71.49-23.32 71.49-23.29 64.13-7.33 64.13-7.33 63.9-6.8 63.9 0Q63.9 0.03 63.86 0.03L63.86 0.03 59.2 0.03Q59.2 0.03 59.2 0L59.2 0 59.2-6.8 58.93-7.33 51.57-23.29 51.57-23.32 51.6-23.32 56.74-23.32 56.74-23.32 61.53-12.93 66.33-23.32 66.36-23.32 71.49-23.32ZM88.62 0.03L83.72 0.03 83.69 0 76.19-23.29 76.19-23.32 76.22-23.32 81.12-23.32 81.12-23.29 86.15-7.66 91.18-23.29 91.18-23.32 91.18-23.32 91.22-23.32 96.11-23.32 96.11-23.32 96.11-23.32 96.11-23.29 101.14-7.66 106.17-23.29 106.21-23.32 111.1-23.32 111.1-23.32 111.1-23.29 103.61 0 103.61 0.03 98.71 0.03 98.68 0 93.65-15.62 88.62 0 88.62 0.03ZM116.07-7.83L111.04-7.83 111-7.83 111-7.86 113.54-15.69Q113.54-15.79 113.57-15.69L113.57-15.69 116.1-7.86 116.1-7.83 116.07-7.83ZM109.54-3.2L117.57-3.2 117.6-3.2 118.63 0 118.63 0 118.6 0.03 108.51 0.03 108.47 0 108.47 0 109.51-3.2 109.54-3.2ZM138.72-23.32L143.39-23.32Q143.39-23.32 143.39-23.29L143.39-23.29 143.39 0Q143.39 0.03 143.39 0.03L143.39 0.03 137.89 0.03 137.89 0 128.16-15.69 128.16 0Q128.16 0.03 128.16 0.03L128.16 0.03 123.5 0.03 123.46 0 123.46 0 115.97-23.29 115.97-23.32 116-23.32 128.96-23.32 129-23.32 138.69-7.63 138.69-23.29Q138.69-23.32 138.72-23.32L138.72-23.32ZM158.65-0.03L158.65-0.03Q156.61-0.23 154.78-1.08 152.95-1.93 151.52-3.4L151.52-3.4Q149.85-5.06 148.97-7.18 148.08-9.29 148.08-11.66L148.08-11.66Q148.08-13.99 148.97-16.11 149.85-18.22 151.52-19.89L151.52-19.89Q153.18-21.55 155.3-22.44 157.41-23.32 159.74-23.32L159.74-23.32Q162.11-23.32 164.23-22.44 166.34-21.55 168.01-19.89L168.01-19.89Q168.04-19.89 168.01-19.86L168.01-19.86 164.71-16.56Q164.71-16.56 164.68-16.56L164.68-16.56Q163.68-17.56 162.43-18.09 161.18-18.62 159.74-18.62L159.74-18.62Q158.35-18.62 157.08-18.09 155.81-17.56 154.85-16.56L154.85-16.56Q153.81-15.56 153.3-14.28 152.78-12.99 152.78-11.66 152.78-10.33 153.3-9.03 153.81-7.73 154.85-6.73L154.85-6.73Q155.68-5.86 156.73-5.36 157.78-4.86 158.9-4.73 160.01-4.6 161.14-4.83 162.28-5.06 163.31-5.66L163.31-5.66 163.31-11.66Q163.31-11.66 163.34-11.66L163.34-11.66 168.01-11.66Q168.01-11.66 168.01-11.66L168.01-11.66 168.01-3.4 168.01-3.4Q167.17-2.57 166.21-1.9L166.21-1.9Q164.78-0.97 163.13-0.47 161.48 0.03 159.74 0.03L159.74 0.03Q159.21 0.03 158.65-0.03Z" transform="translate(-2.3299999237060547, 23.31999969482422)"></path></g> <!----> <!----> <!----> <!----> <!----> <!----> <!----></g></g> <!----></g></g><defs v-gra="od"></defs></svg>